<svg id="Layer_1" xmlns="http://www.w3.org/2000/svg" width="650.8" height="191.2" viewBox="0 0 650.8 191.2"><style>.st0{fill:#7E2CDB;}</style><circle id="XMLID_14_" class="st0" cx="625.6" cy="127.4" r="25.1"/><path id="XMLID_12_" class="st0" d="M98.7 83c0-26.7-14.9-43.5-40.5-43.5-15.7 0-27.6 7.3-32.5 17.7V41.6H0v108.6h25.6V87.7c0-14.9 10.3-25.2 24.6-25.2C64.6 62.5 73 72 73 86.6v63.6h25.6V83z"/><path id="XMLID_24_" class="st0" d="M173.3 191.2L231 41.6h-27.3l-56.5 149.6z"/><path id="XMLID_13_" class="st0" d="M403.8 150.2V83c0-26.7-13.4-43.5-37.1-43.5-15.3 0-28.2 5.4-34.9 19-5.2-12.1-15.3-19-30.6-19-14 0-24.6 7.3-29.1 17.7V41.6h-25.6v108.6h25.6V87.7c0-14.9 9-25.2 21.1-25.2 12.5 0 19.4 9.5 19.4 24.1v63.6h25.6V87.7c0-14.9 8.8-25.2 20.9-25.2 12.1 0 19 9.5 19 24.1v63.6h25.7z"/><path id="XMLID_28_" class="st0" d="M450.9 0v57.3c3.7-10.1 16.4-18.1 34.7-18.1 30.6 0 54.3 24.6 54.3 56.7s-23.7 56.7-54.3 56.7c-18.3 0-31-8-34.7-18.1v15.7H425V0h25.9zm63.4 95.9c0-19-13.8-33.2-32.1-33.2-18.7 0-33.2 14.2-33.2 33.2 0 19 14.4 33.2 33.2 33.2 18.3 0 32.1-14.3 32.1-33.2z"/><path id="XMLID_15_" class="st0" d="M557.4 0h25.9v150.2h-25.9z"/><circle id="XMLID_23_" class="st0" cx="137.4" cy="64.6" r="25.1"/></svg>